<?xml version="1.0" encoding="UTF-8"?><svg id="Layer_1" xmlns="http://www.w3.org/2000/svg" viewBox="0 0 200 200"><defs><style>.cls-1{fill:#fff;}</style></defs><path class="cls-1" d="M100,0C44.77,0,0,44.77,0,100s44.77,100,100,100,100-44.77,100-100S155.23,0,100,0Zm-28.47,99.49c.01,.84-.59,1.57-1.42,1.71-5.69,1.14-27.04,3.99-27.04-14.23v-31.74c0-7.86,6.37-14.23,14.23-14.23s14.23,6.37,14.23,14.23v44.27Zm42.7,28.61c-.06,.79-.64,1.44-1.42,1.57-5.69,1.13-27.04,3.98-27.04-14.24v-31.74c0-7.86,6.37-14.23,14.23-14.23s14.23,6.37,14.23,14.23v44.41Zm42.7,28.47c-.06,.79-.64,1.44-1.42,1.57-5.69,1.13-27.04,3.98-27.04-14.24v-31.74c0-7.86,6.37-14.23,14.23-14.23s14.23,6.37,14.23,14.23v44.41Z"/></svg>