<svg width="574" height="66" viewBox="0 0 574 66" fill="none" xmlns="http://www.w3.org/2000/svg">
<path d="M400.014 0L458.268 2.03644e-05V9.64575L434.308 9.64575L434.308 64.4471L423.973 64.4471V9.64574L400.014 9.64573V0Z" fill="white"/>
<path d="M458.1 58.793C458.1 62.3445 455.155 65.2235 451.523 65.2235C447.89 65.2235 444.946 62.3445 444.946 58.793C444.946 55.2416 447.89 52.3626 451.523 52.3626C455.155 52.3626 458.1 55.2416 458.1 58.793Z" fill="white"/>
<path d="M554.582 64.4471H544.484V0L554.582 3.52983e-06L554.582 64.4471Z" fill="white"/>
<path d="M93.5954 66C74.1826 66 59.0311 51.3333 59.0311 33C59.0311 14.6667 74.1826 5.2966e-06 93.5954 1.20829e-05C113.008 1.88691e-05 128.16 14.6667 128.16 33C128.16 51.3333 113.008 66 93.5954 66ZM93.5954 56.375C106.569 56.375 117.27 47.1167 117.27 33C117.27 18.975 106.853 9.62502 93.5954 9.62501C80.3379 9.62501 69.9213 19.0667 69.9212 33.0917C69.9212 47.2083 80.622 56.375 93.5954 56.375Z" fill="white"/>
<path d="M205.832 0L264.863 2.06359e-05L264.863 9.66708L240.584 9.66707V64.4471L230.111 64.4471L230.111 9.66707L205.832 9.66706V0Z" fill="white"/>
<path d="M380.977 57.1738V1.72394e-05L391.47 2.09074e-05L391.47 64.4471L373.251 64.4471L342.154 7.36539V64.4471H331.662V0L349.881 6.36893e-06L380.977 57.1738Z" fill="white"/>
<path d="M186.796 57.1738L186.796 1.72394e-05L197.288 2.09074e-05L197.288 64.4471L179.069 64.4471L147.973 7.36539L147.973 64.4471H137.48L137.48 0L155.699 6.36893e-06L186.796 57.1738Z" fill="white"/>
<path d="M537.494 64.4471H524.941L498.658 0L510.426 4.11401e-06L537.494 64.4471Z" fill="white"/>
<path d="M273.407 64.4471L273.407 0L322.162 1.70434e-05V9.66708L283.923 9.66706V26.2392L319.294 26.2392V35.9062L283.923 35.9062V54.78L323.118 54.78V64.4471L273.407 64.4471Z" fill="white"/>
<path d="M2.2544e-05 0L10.8742 3.80135e-06L10.8742 64.4471L0 64.4471L2.2544e-05 0Z" fill="white"/>
<path d="M478.463 64.4471H466.035L479.628 32.6118H491.667L478.463 64.4471Z" fill="white"/>
<path d="M33.3992 32.2235L58.2543 64.4474L44.6617 64.4474L20.1949 32.2235L44.8108 8.68878e-06L58.2543 1.33883e-05L33.3992 32.2235Z" fill="white"/>
<path d="M571.021 6.52883C571.036 7.0646 571.058 7.39071 571.281 7.65471V7.76342H570.442C570.33 7.53048 570.271 7.24318 570.263 6.52107C570.256 5.69801 569.862 5.46507 569.246 5.46507H567.886V7.76342H567.203V2.32812H569.58C570.642 2.32812 571.236 3.00365 571.236 3.80342C571.236 4.47895 570.865 4.96036 570.196 5.20107C570.702 5.39518 570.999 5.77565 571.021 6.52883ZM567.886 3.00365V4.78954H569.521C570.137 4.78954 570.516 4.46342 570.516 3.8966C570.516 3.32201 570.137 3.00365 569.521 3.00365H567.886Z" fill="white"/>
<path fill-rule="evenodd" clip-rule="evenodd" d="M568.951 9.51176C571.418 9.51176 573.417 7.51285 573.417 5.04706C573.417 2.58127 571.418 0.582353 568.951 0.582353C566.484 0.582353 564.485 2.58127 564.485 5.04706C564.485 7.51285 566.484 9.51176 568.951 9.51176ZM568.951 10.0941C571.739 10.0941 574 7.83447 574 5.04706C574 2.25965 571.739 0 568.951 0C566.163 0 563.902 2.25965 563.902 5.04706C563.902 7.83447 566.163 10.0941 568.951 10.0941Z" fill="white"/>
</svg>
